<?xml version="1.0" encoding="UTF-8" standalone="no"?>
<!-- Created with Inkscape (http://www.inkscape.org/) -->

<svg
   xmlns:dc="http://purl.org/dc/elements/1.1/"
   xmlns:cc="http://creativecommons.org/ns#"
   xmlns:rdf="http://www.w3.org/1999/02/22-rdf-syntax-ns#"
   xmlns:svg="http://www.w3.org/2000/svg"
   xmlns="http://www.w3.org/2000/svg"
   xmlns:xlink="http://www.w3.org/1999/xlink"
   xmlns:sodipodi="http://sodipodi.sourceforge.net/DTD/sodipodi-0.dtd"
   xmlns:inkscape="http://www.inkscape.org/namespaces/inkscape"
   width="210mm"
   height="297mm"
   id="svg2"
   version="1.1"
   inkscape:version="0.48.4 r9939"
   sodipodi:docname="material.svg">
  <defs
     id="defs4" />
  <sodipodi:namedview
     id="base"
     pagecolor="#ffffff"
     bordercolor="#666666"
     borderopacity="1.0"
     inkscape:pageopacity="0.0"
     inkscape:pageshadow="2"
     inkscape:zoom="0.7"
     inkscape:cx="239.58209"
     inkscape:cy="811.02729"
     inkscape:document-units="px"
     inkscape:current-layer="layer1"
     showgrid="true"
     inkscape:window-width="1827"
     inkscape:window-height="1057"
     inkscape:window-x="1358"
     inkscape:window-y="892"
     inkscape:window-maximized="1"
     inkscape:snap-bbox="true">
    <inkscape:grid
       type="xygrid"
       id="grid2982" />
  </sodipodi:namedview>
  <metadata
     id="metadata7">
    <rdf:RDF>
      <cc:Work
         rdf:about="">
        <dc:format>image/svg+xml</dc:format>
        <dc:type
           rdf:resource="http://purl.org/dc/dcmitype/StillImage" />
        <dc:title></dc:title>
      </cc:Work>
    </rdf:RDF>
  </metadata>
  <g
     inkscape:label="レイヤー 1"
     inkscape:groupmode="layer"
     id="layer1">
    <path
       style="color:#000000;fill:#f2f2f2;fill-opacity:1;stroke:#c6c6c6;stroke-width:10;stroke-miterlimit:4;stroke-opacity:1;stroke-dasharray:30, 10;stroke-dashoffset:0;marker:none;visibility:visible;display:inline;overflow:visible;enable-background:accumulate"
       d="m 80,12.362183 600,0 0,294.999997 -600,0 z"
       id="rect2983"
       inkscape:connector-curvature="0"
       sodipodi:nodetypes="ccccc"
       inkscape:export-filename="src/back.png"
       inkscape:export-xdpi="59.016392"
       inkscape:export-ydpi="59.016392" />
    <text
       xml:space="preserve"
       style="font-size:45.26698685px;font-style:normal;font-variant:normal;font-weight:normal;font-stretch:normal;text-align:start;line-height:125%;letter-spacing:0px;word-spacing:0px;writing-mode:lr-tb;text-anchor:start;fill:#999999;fill-opacity:1;stroke:none;font-family:'M+ 2c light';-inkscape-font-specification:'M+ 2c light'"
       x="148.32236"
       y="80.312424"
       id="text2985"
       sodipodi:linespacing="125%"><tspan
         sodipodi:role="line"
         id="tspan2987"
         x="148.32236"
         y="80.312424">Convert Image to SVG.</tspan></text>
    <g
       id="logo"
       transform="matrix(0.56537104,0,0,0.56537104,435.19434,117.51208)"
       inkscape:export-xdpi="9"
       inkscape:export-ydpi="9">
      <defs
         id="defs3029">
        <g
           style="fill:#ffffff"
           id="SVG"
           transform="matrix(2,0,0,2,40,158)">
          <path
             inkscape:connector-curvature="0"
             id="S"
             d="M 5.482,31.319 C 2.163,28.001 0.109,23.419 0.109,18.358 0.109,8.232 8.322,0.024 18.443,0.024 c 10.126,0 18.339,8.208 18.339,18.334 l -10.74,0 c 0,-4.194 -3.404,-7.593 -7.599,-7.593 -4.194,0 -7.593,3.399 -7.593,7.593 0,2.095 0.851,3.993 2.22,5.363 l 0.005,0 c 1.375,1.38 2.52,1.779 5.368,2.231 l 0,0 c 5.066,0.527 9.648,2.054 12.966,5.372 l 0,0 c 3.319,3.319 5.373,7.901 5.373,12.962 0,10.126 -8.213,18.339 -18.339,18.339 -10.121,0 -18.334,-8.213 -18.334,-18.339 l 10.741,0 c 0,4.194 3.399,7.598 7.593,7.598 4.195,0 7.599,-3.404 7.599,-7.598 0,-2.095 -0.851,-3.988 -2.221,-5.363 l -0.005,0 c -1.375,-1.375 -3.348,-1.849 -5.373,-2.226 l 0,-0.005 C 13.533,35.939 8.8,34.638 5.482,31.319 l 0,0 0,0 z" />
          <path
             inkscape:connector-curvature="0"
             id="V"
             d="m 73.452,0.024 -12.97,62.601 -10.74,0 -12.96,-62.601 10.74,0 7.6,36.663 7.59,-36.663 10.74,0 z" />
          <path
             inkscape:connector-curvature="0"
             id="G"
             d="m 91.792,25.952 18.334,0 0,18.334 0.005,0 c 0,10.127 -8.213,18.34 -18.339,18.34 -10.127,0 -18.334,-8.213 -18.334,-18.34 l 0,0 0,-25.927 -0.005,0 c 0,-10.126 8.212,-18.334 18.339,-18.334 10.121,0 18.334,8.208 18.334,18.334 l -10.741,0 c 0,-4.19 -3.404,-7.594 -7.593,-7.594 -4.195,0 -7.594,3.404 -7.594,7.594 l 0,25.927 0,0 c 0,4.195 3.399,7.594 7.594,7.594 4.189,0 7.588,-3.399 7.593,-7.589 l 0,-0.005 0,-7.588 -7.593,0 0,-10.746 0,0 z" />
        </g>
      </defs>
      <path
         style="fill:#000000"
         inkscape:connector-curvature="0"
         id="base-4"
         d="m 8.5,150 h 283 v 100 c 0,23.5 -18,41.5 -41.5,41.5 H 50 C 26.5,291.5 8.5,273.5 8.5,250 z" />
      <g
         style="stroke:#000000;stroke-width:38.00859833"
         id="g3036">
        <g
           id="svgstar"
           transform="translate(150,150)">
          <path
             style="fill:#ffb13b"
             inkscape:connector-curvature="0"
             id="svgbar"
             d="m -84.1487,-15.8513 a 22.4171,22.4171 0 1 0 0,31.7026 H 84.1487 a 22.4171,22.4171 0 1 0 0,-31.7026 z" />
          <use
             height="1"
             width="1"
             y="0"
             x="0"
             xlink:href="#svgbar"
             transform="matrix(0.70710678,0.70710678,-0.70710678,0.70710678,0,0)"
             id="use3040" />
          <use
             height="1"
             width="1"
             y="0"
             x="0"
             xlink:href="#svgbar"
             transform="matrix(0,1,-1,0,0,0)"
             id="use3042" />
          <use
             height="1"
             width="1"
             y="0"
             x="0"
             xlink:href="#svgbar"
             transform="matrix(-0.70710678,0.70710678,-0.70710678,-0.70710678,0,0)"
             id="use3044" />
        </g>
      </g>
      <use
         height="1"
         width="1"
         y="0"
         x="0"
         xlink:href="#svgstar"
         id="use3046" />
      <use
         height="1"
         width="1"
         y="0"
         x="0"
         style="opacity:0.85"
         xlink:href="#base-4"
         id="use3048" />
      <use
         height="1"
         width="1"
         y="0"
         x="0"
         xlink:href="#SVG"
         id="use3050" />
    </g>
    <path
       style="fill:#e7f7f8;fill-opacity:1;stroke:none"
       d="m 165,192.36218 150,0 0,-45 -150,0 z"
       id="path3936"
       inkscape:connector-curvature="0" />
    <path
       style="fill:#d5eaff;fill-opacity:1;stroke:none"
       d="m 165,192.36218 c 60,-5 90,-5 150,0 l 0,30 -150,35 z"
       id="path3934"
       inkscape:connector-curvature="0"
       sodipodi:nodetypes="ccccc" />
    <path
       style="fill:#fff6d5;stroke:none"
       d="m 165,257.36218 150,0 0,-40 -85,15.55584 z"
       id="path3932"
       inkscape:connector-curvature="0"
       sodipodi:nodetypes="ccccc" />
    <path
       style="fill:#ffffff;stroke:none"
       d="m 170,247.36218 c 4.48332,-2.77085 9.70664,-0.27232 14.49492,-2.47462 8.82916,-4.06084 30.66872,-8.75561 39.64722,-12.47462 12.69751,-5.25948 45.1216,-13.35435 58.68782,-15.55584 C 304.28004,213.37623 315,212.36218 315,212.36218 l -5,10 c 0,0 -33.62067,1.49672 -50,5 -10.30779,2.20468 -19.8122,7.29448 -30,10 -8.21367,2.18126 -16.96162,2.24197 -25,5 -7.05012,2.41895 -13.11381,7.14765 -20,10 -4.86927,2.01692 -15,5 -15,5 l -5,-5 c 0,0 2.995,-3.76084 5,-5 z"
       id="path3938"
       inkscape:connector-curvature="0"
       sodipodi:nodetypes="ssssccssssccs" />
    <path
       style="color:#000000;fill:#ffffff;fill-opacity:1;fill-rule:nonzero;stroke:none;stroke-width:10;marker:none;visibility:visible;display:inline;overflow:visible;enable-background:accumulate"
       d="m 160,142.375 0,120 160,0 0,-120 -160,0 z m 10,10 140,0 0,100 -140,0 0,-100 z"
       id="rect3179-6"
       inkscape:connector-curvature="0" />
    <path
       style="fill:#ffffff;stroke:none"
       d="m 181.63461,228.29861 c 17.41857,-9.90459 16.00819,-9.21309 37.37565,-9.59645 0,0 -11.4526,1.00715 -13.51079,2.39912 -4.32001,2.92165 -6.7333,4.38417 -12.87945,4.16688 -1.67282,-0.0591 -10.98541,3.03045 -10.98541,3.03045 z"
       id="path3940"
       inkscape:connector-curvature="0"
       sodipodi:nodetypes="ccssc" />
    <path
       style="fill:#ffffff;stroke:none"
       d="m 263.28318,212.23898 c 18.43757,-7.84626 16.95732,-7.3207 38.22829,-5.25639 0,0 -11.49262,-0.31002 -13.69658,0.83728 -4.62597,2.4081 -7.19076,3.58485 -13.27167,2.66566 -1.65507,-0.25013 -11.26004,1.75345 -11.26004,1.75345 z"
       id="path3940-8"
       inkscape:connector-curvature="0"
       sodipodi:nodetypes="ccssc" />
    <path
       style="fill:#ffffff;stroke:none"
       d="m 199.39555,200.9074 c 12.79041,-5.46888 11.76341,-5.10227 26.53257,-3.69441 0,0 -7.97876,-0.2016 -9.50743,0.5975 -3.20858,1.67723 -4.98772,2.4972 -9.21029,1.86629 -1.14928,-0.17169 -7.81485,1.23062 -7.81485,1.23062 z"
       id="path3940-6"
       inkscape:connector-curvature="0"
       sodipodi:nodetypes="ccssc" />
    <path
       style="fill:#ffffff;stroke:none"
       d="m 238.88862,202.601 c 12.35466,-5.33076 11.36243,-4.97287 25.65303,-3.65811 0,0 -7.71846,-0.16958 -9.19458,0.60824 -3.0983,1.63261 -4.81662,2.43143 -8.90311,1.8346 -1.11224,-0.16241 -7.55534,1.21527 -7.55534,1.21527 z"
       id="path3940-0"
       inkscape:connector-curvature="0"
       sodipodi:nodetypes="ccssc" />
    <path
       style="fill:#ffd5d5;stroke:none"
       d="m 350,182.36218 0,40 20,0 0,20 40,-40 -40,-40 0,20 z"
       id="path4767"
       inkscape:connector-curvature="0"
       sodipodi:nodetypes="cccccccc" />
  </g>
</svg>
